<svg viewBox="0 0 16 16" xmlns="http://www.w3.org/2000/svg">
<path fill-rule="evenodd" clip-rule="evenodd" d="M12.5107 9.66672C13.3298 9.66672 14 9.01175 14 8.21123C14 7.41071 13.3298 6.75574 12.5107 6.75574C11.6915 6.75574 11.0213 7.41071 11.0213 8.21123C11.0213 9.01175 11.6915 9.66672 12.5107 9.66672ZM3.57459 9.66672C4.39373 9.66672 5.06394 9.01175 5.06394 8.21123C5.06394 7.41071 4.39373 6.75574 3.57459 6.75574C2.75545 6.75574 2.08525 7.41071 2.08525 8.21123C2.08525 9.01175 2.75545 9.66672 3.57459 9.66672ZM8.04262 9.66672C8.86176 9.66672 9.53197 9.01175 9.53197 8.21123C9.53197 7.41071 8.86176 6.75574 8.04262 6.75574C7.22348 6.75574 6.55328 7.41071 6.55328 8.21123C6.55328 9.01175 7.22348 9.66672 8.04262 9.66672Z" fill="currentColor"/>
</svg>
